<?xml version="1.0" standalone="no"?>
<!DOCTYPE svg PUBLIC "-//W3C//DTD SVG 20010904//EN"
 "http://www.w3.org/TR/2001/REC-SVG-20010904/DTD/svg10.dtd">
<svg version="1.0" xmlns="http://www.w3.org/2000/svg"
 width="1024.000000pt" height="1024.000000pt" viewBox="0 0 1024.000000 1024.000000"
 preserveAspectRatio="xMidYMid meet">
<metadata>
Created by potrace 1.11, written by Peter Selinger 2001-2013
</metadata>
<g transform="translate(0.000000,1024.000000) scale(0.100000,-0.100000)"
fill="#000000" stroke="none">
<path d="M4940 10233 c-959 -39 -1850 -325 -2646 -849 -937 -617 -1671 -1571
-2029 -2639 -26 -77 -49 -149 -51 -159 -2 -11 -10 -40 -18 -65 -44 -137 -115
-486 -145 -723 -63 -476 -61 -935 4 -1398 74 -521 203 -957 428 -1445 518
-1125 1456 -2037 2604 -2534 1696 -735 3662 -495 5134 625 925 704 1578 1697
1869 2844 12 47 24 97 26 113 1 15 5 31 8 36 6 9 7 17 40 226 55 350 70 536
69 880 -1 360 -33 667 -103 1010 -16 77 -31 154 -34 170 -8 45 -80 294 -121
419 -214 652 -607 1313 -1092 1841 -674 733 -1565 1261 -2533 1500 -281 69
-546 112 -825 135 -133 10 -468 18 -585 13z"/>
</g>
</svg>
