<?xml version="1.0" standalone="no"?>
<!DOCTYPE svg PUBLIC "-//W3C//DTD SVG 20010904//EN"
 "http://www.w3.org/TR/2001/REC-SVG-20010904/DTD/svg10.dtd">
<svg version="1.0" xmlns="http://www.w3.org/2000/svg"
 width="1024.000000pt" height="1024.000000pt" viewBox="0 0 1024.000000 1024.000000"
 preserveAspectRatio="xMidYMid meet">
<metadata>
Created by potrace 1.11, written by Peter Selinger 2001-2013
</metadata>
<g transform="translate(0.000000,1024.000000) scale(0.100000,-0.100000)"
fill="#000000" stroke="none">
<path d="M4940 10233 c-949 -36 -1851 -326 -2646 -849 -937 -617 -1671 -1571
-2029 -2639 -26 -77 -49 -149 -51 -159 -2 -11 -10 -40 -18 -65 -45 -137 -115
-487 -145 -723 -65 -493 -61 -962 10 -1433 87 -573 221 -1000 479 -1520 254
-512 556 -932 965 -1340 401 -402 805 -694 1310 -950 1441 -729 3127 -734
4580 -15 508 251 933 557 1340 965 247 246 431 468 627 755 232 340 474 825
606 1215 59 175 138 458 148 528 1 15 5 31 8 36 6 9 7 17 40 226 55 349 70
540 69 880 -1 354 -33 671 -103 1010 -16 77 -31 154 -34 170 -8 45 -80 294
-121 419 -214 652 -607 1313 -1092 1841 -674 733 -1565 1261 -2533 1500 -283
69 -548 113 -830 135 -134 10 -456 18 -580 13z"/>
</g>
</svg>
